# xmcd CD database file
#
# Track frame offsets:
#	150
#	16409
#	33620
#	46627
#	61309
#	75035
#	88139
#	100566
#	111619
#	123403
#	139636
#	153367
#	169187
#	183142
#	198253
#	212010
#	228069
#	242972
#	259196
#	275022
#	288369
#
# Disc length: 4073 seconds
#
# Revision: 1
# Processed by: cddbd v1.5.2PL0 Copyright (c) Steve Scherf et al.
# Submitted via: CDex 2.21
#
DISCID=180fe715
DTITLE=Tracy Lawrence - The Very Best Of Tracy Lawrence
DYEAR=2007
DGENRE=Country
TTITLE0=Sticks and Stones
TTITLE1=Today's Lonely Fool
TTITLE2=Runnin' Behind
TTITLE3=Somebody Paints the Wall
TTITLE4=Alibis
TTITLE5=Can't Break It to My Heart
TTITLE6=My Second Home
TTITLE7=If the Good Die Young
TTITLE8=Renegades, Rebels and Rogues
TTITLE9=I See It Now
TTITLE10=As Any Fool Can See
TTITLE11=Texas Tornado
TTITLE12=If the World Had a Front Porch
TTITLE13=If You Loved Me
TTITLE14=Time Marches On
TTITLE15=Stars over Texas
TTITLE16=Is That a Tear
TTITLE17=Better Man, Better Off
TTITLE18=How a Cowgirl Says Goodbye
TTITLE19=Lessons Learned
TTITLE20=Paint Me A Birmingham
EXTD=YEAR: 2007
EXTT0=
EXTT1=
EXTT2=
EXTT3=
EXTT4=
EXTT5=
EXTT6=
EXTT7=
EXTT8=
EXTT9=
EXTT10=
EXTT11=
EXTT12=
EXTT13=
EXTT14=
EXTT15=
EXTT16=
EXTT17=
EXTT18=
EXTT19=
EXTT20=
PLAYORDER=
